name rise38.3101peak57.3503fall81.6963.mot
datacolumns 19
datarows 33
range 3.36832400000000 3.42166200000000
endheader
time	ground_force1_vx	ground_force1_vy	ground_force1_vz	ground_force1_px	ground_force1_py	ground_force1_pz	ground_force2_vx	ground_force2_vy	ground_force2_vz	ground_force2_px	ground_force2_py	ground_force2_pz	ground_torque1_x	ground_torque1_y	ground_torque1_z	ground_torque2_x	ground_torque2_y	ground_torque2_z	
3.36832400000000	17.38646600000000	711.09929499999998	45.57197500000000	0.26600700000000	0.00000000000000	0.11589700000000	0.00000000000000	0.00000000000000	0.00000000000000	0.00000000000000	0.00000000000000	0.00000000000000	0.00000000000000	20.95552000000000	0.00000000000000	0.00000000000000	0.00000000000000	0.00000000000000	
3.37000300000000	16.95066200000000	711.36149599999999	45.52930400000000	0.26538200000000	0.00000000000000	0.11585100000000	0.00000000000000	0.00000000000000	0.00000000000000	0.00000000000000	0.00000000000000	0.00000000000000	0.00000000000000	21.01135100000000	0.00000000000000	0.00000000000000	0.00000000000000	0.00000000000000	
3.37165700000000	16.50712100000000	711.62800800000002	45.48596700000000	0.26475500000000	0.00000000000000	0.11580200000000	0.00000000000000	0.00000000000000	0.00000000000000	0.00000000000000	0.00000000000000	0.00000000000000	0.00000000000000	21.06938000000000	0.00000000000000	0.00000000000000	0.00000000000000	0.00000000000000	
3.37332500000000	16.05557800000000	711.89889000000005	45.44189000000000	0.26412400000000	0.00000000000000	0.11575300000000	0.00000000000000	0.00000000000000	0.00000000000000	0.00000000000000	0.00000000000000	0.00000000000000	0.00000000000000	21.12952900000000	0.00000000000000	0.00000000000000	0.00000000000000	0.00000000000000	
3.37499800000000	15.59579000000000	712.17430600000000	45.39701300000000	0.26348800000000	0.00000000000000	0.11570200000000	0.00000000000000	0.00000000000000	0.00000000000000	0.00000000000000	0.00000000000000	0.00000000000000	0.00000000000000	21.19172300000000	0.00000000000000	0.00000000000000	0.00000000000000	0.00000000000000	
3.37666100000000	15.12753500000000	712.45452499999999	45.35129100000000	0.26284500000000	0.00000000000000	0.11565000000000	0.00000000000000	0.00000000000000	0.00000000000000	0.00000000000000	0.00000000000000	0.00000000000000	0.00000000000000	21.25589300000000	0.00000000000000	0.00000000000000	0.00000000000000	0.00000000000000	
3.37832400000000	14.65061200000000	712.73992099999998	45.30469500000000	0.26219200000000	0.00000000000000	0.11559700000000	0.00000000000000	0.00000000000000	0.00000000000000	0.00000000000000	0.00000000000000	0.00000000000000	0.00000000000000	21.32197200000000	0.00000000000000	0.00000000000000	0.00000000000000	0.00000000000000	
3.37999300000000	14.16484700000000	713.03096300000004	45.25721400000000	0.26153000000000	0.00000000000000	0.11554400000000	0.00000000000000	0.00000000000000	0.00000000000000	0.00000000000000	0.00000000000000	0.00000000000000	0.00000000000000	21.38989600000000	0.00000000000000	0.00000000000000	0.00000000000000	0.00000000000000	
3.38165600000000	13.67008600000000	713.32822099999998	45.20885000000000	0.26085500000000	0.00000000000000	0.11548900000000	0.00000000000000	0.00000000000000	0.00000000000000	0.00000000000000	0.00000000000000	0.00000000000000	0.00000000000000	21.45960500000000	0.00000000000000	0.00000000000000	0.00000000000000	0.00000000000000	
3.38332800000000	13.16620500000000	713.63235499999996	45.15962400000000	0.26016700000000	0.00000000000000	0.11543400000000	0.00000000000000	0.00000000000000	0.00000000000000	0.00000000000000	0.00000000000000	0.00000000000000	0.00000000000000	21.53104500000000	0.00000000000000	0.00000000000000	0.00000000000000	0.00000000000000	
3.38499500000000	12.65310400000000	713.94411500000001	45.10957200000000	0.25946400000000	0.00000000000000	0.11537800000000	0.00000000000000	0.00000000000000	0.00000000000000	0.00000000000000	0.00000000000000	0.00000000000000	0.00000000000000	21.60416400000000	0.00000000000000	0.00000000000000	0.00000000000000	0.00000000000000	
3.38666500000000	12.13071100000000	714.26433399999996	45.05874700000000	0.25874500000000	0.00000000000000	0.11532100000000	0.00000000000000	0.00000000000000	0.00000000000000	0.00000000000000	0.00000000000000	0.00000000000000	0.00000000000000	21.67891500000000	0.00000000000000	0.00000000000000	0.00000000000000	0.00000000000000	
3.38832500000000	11.59898100000000	714.59392600000001	45.00721600000000	0.25800900000000	0.00000000000000	0.11526400000000	0.00000000000000	0.00000000000000	0.00000000000000	0.00000000000000	0.00000000000000	0.00000000000000	0.00000000000000	21.75525400000000	0.00000000000000	0.00000000000000	0.00000000000000	0.00000000000000	
3.38999800000000	11.05790000000000	714.93388000000004	44.95506500000000	0.25725500000000	0.00000000000000	0.11520600000000	0.00000000000000	0.00000000000000	0.00000000000000	0.00000000000000	0.00000000000000	0.00000000000000	0.00000000000000	21.83314100000000	0.00000000000000	0.00000000000000	0.00000000000000	0.00000000000000	
3.39166000000000	10.50748100000000	715.28525600000000	44.90239400000000	0.25648100000000	0.00000000000000	0.11514800000000	0.00000000000000	0.00000000000000	0.00000000000000	0.00000000000000	0.00000000000000	0.00000000000000	0.00000000000000	21.91254100000000	0.00000000000000	0.00000000000000	0.00000000000000	0.00000000000000	
3.39332700000000	9.94776700000000	715.64917400000002	44.84932100000000	0.25568800000000	0.00000000000000	0.11508900000000	0.00000000000000	0.00000000000000	0.00000000000000	0.00000000000000	0.00000000000000	0.00000000000000	0.00000000000000	21.99342200000000	0.00000000000000	0.00000000000000	0.00000000000000	0.00000000000000	
3.39500600000000	9.37883200000000	716.02681900000005	44.79597800000000	0.25487300000000	0.00000000000000	0.11503000000000	0.00000000000000	0.00000000000000	0.00000000000000	0.00000000000000	0.00000000000000	0.00000000000000	0.00000000000000	22.07575600000000	0.00000000000000	0.00000000000000	0.00000000000000	0.00000000000000	
3.39665500000000	8.80078000000000	716.41942300000005	44.74251400000000	0.25403800000000	0.00000000000000	0.11497100000000	0.00000000000000	0.00000000000000	0.00000000000000	0.00000000000000	0.00000000000000	0.00000000000000	0.00000000000000	22.15951700000000	0.00000000000000	0.00000000000000	0.00000000000000	0.00000000000000	
3.39832700000000	8.21374400000000	716.82826799999998	44.68909300000000	0.25318100000000	0.00000000000000	0.11491100000000	0.00000000000000	0.00000000000000	0.00000000000000	0.00000000000000	0.00000000000000	0.00000000000000	0.00000000000000	22.24468500000000	0.00000000000000	0.00000000000000	0.00000000000000	0.00000000000000	
3.39999200000000	7.61788800000000	717.25467700000002	44.63589200000000	0.25230200000000	0.00000000000000	0.11485200000000	0.00000000000000	0.00000000000000	0.00000000000000	0.00000000000000	0.00000000000000	0.00000000000000	0.00000000000000	22.33123900000000	0.00000000000000	0.00000000000000	0.00000000000000	0.00000000000000	
3.40165600000000	7.01340600000000	717.70000500000003	44.58310700000000	0.25140000000000	0.00000000000000	0.11479200000000	0.00000000000000	0.00000000000000	0.00000000000000	0.00000000000000	0.00000000000000	0.00000000000000	0.00000000000000	22.41916600000000	0.00000000000000	0.00000000000000	0.00000000000000	0.00000000000000	
3.40332100000000	6.40052200000000	718.16563599999995	44.53094600000000	0.25047700000000	0.00000000000000	0.11473200000000	0.00000000000000	0.00000000000000	0.00000000000000	0.00000000000000	0.00000000000000	0.00000000000000	0.00000000000000	22.50845100000000	0.00000000000000	0.00000000000000	0.00000000000000	0.00000000000000	
3.40499300000000	5.77948900000000	718.65297599999997	44.47962900000000	0.24953100000000	0.00000000000000	0.11467200000000	0.00000000000000	0.00000000000000	0.00000000000000	0.00000000000000	0.00000000000000	0.00000000000000	0.00000000000000	22.59908300000000	0.00000000000000	0.00000000000000	0.00000000000000	0.00000000000000	
3.40665800000000	5.15058900000000	719.16344500000002	44.42939400000000	0.24856300000000	0.00000000000000	0.11461200000000	0.00000000000000	0.00000000000000	0.00000000000000	0.00000000000000	0.00000000000000	0.00000000000000	0.00000000000000	22.69105300000000	0.00000000000000	0.00000000000000	0.00000000000000	0.00000000000000	
3.40832500000000	4.51413200000000	719.69847100000004	44.38048800000000	0.24757400000000	0.00000000000000	0.11455100000000	0.00000000000000	0.00000000000000	0.00000000000000	0.00000000000000	0.00000000000000	0.00000000000000	0.00000000000000	22.78435300000000	0.00000000000000	0.00000000000000	0.00000000000000	0.00000000000000	
3.40999900000000	3.87045700000000	720.25948200000005	44.33317400000000	0.24656400000000	0.00000000000000	0.11449100000000	0.00000000000000	0.00000000000000	0.00000000000000	0.00000000000000	0.00000000000000	0.00000000000000	0.00000000000000	22.87897700000000	0.00000000000000	0.00000000000000	0.00000000000000	0.00000000000000	
3.41165500000000	3.21992700000000	720.84790199999998	44.28772400000000	0.24553300000000	0.00000000000000	0.11443100000000	0.00000000000000	0.00000000000000	0.00000000000000	0.00000000000000	0.00000000000000	0.00000000000000	0.00000000000000	22.97491900000000	0.00000000000000	0.00000000000000	0.00000000000000	0.00000000000000	
3.41332200000000	2.56293300000000	721.46514400000001	44.24442200000000	0.24448300000000	0.00000000000000	0.11437000000000	0.00000000000000	0.00000000000000	0.00000000000000	0.00000000000000	0.00000000000000	0.00000000000000	0.00000000000000	23.07217400000000	0.00000000000000	0.00000000000000	0.00000000000000	0.00000000000000	
3.41499000000000	1.89988900000000	722.11259800000005	44.20356400000000	0.24341300000000	0.00000000000000	0.11430900000000	0.00000000000000	0.00000000000000	0.00000000000000	0.00000000000000	0.00000000000000	0.00000000000000	0.00000000000000	23.17073500000000	0.00000000000000	0.00000000000000	0.00000000000000	0.00000000000000	
3.41665500000000	1.23123300000000	722.79163100000005	44.16545200000000	0.24232600000000	0.00000000000000	0.11424900000000	0.00000000000000	0.00000000000000	0.00000000000000	0.00000000000000	0.00000000000000	0.00000000000000	0.00000000000000	23.27059800000000	0.00000000000000	0.00000000000000	0.00000000000000	0.00000000000000	
3.41832900000000	0.55742600000000	723.50357799999995	44.13040100000000	0.24122200000000	0.00000000000000	0.11418800000000	0.00000000000000	0.00000000000000	0.00000000000000	0.00000000000000	0.00000000000000	0.00000000000000	0.00000000000000	23.37175300000000	0.00000000000000	0.00000000000000	0.00000000000000	0.00000000000000	
3.41999800000000	-0.12105200000000	724.24973299999999	44.09873100000000	0.24010200000000	0.00000000000000	0.11412700000000	0.00000000000000	0.00000000000000	0.00000000000000	0.00000000000000	0.00000000000000	0.00000000000000	0.00000000000000	23.47419400000000	0.00000000000000	0.00000000000000	0.00000000000000	0.00000000000000	
3.42166200000000	-0.80370000000000	725.03134699999998	44.07077000000000	0.23896800000000	0.00000000000000	0.11406600000000	0.00000000000000	0.00000000000000	0.00000000000000	0.00000000000000	0.00000000000000	0.00000000000000	0.00000000000000	23.57790900000000	0.00000000000000	0.00000000000000	0.00000000000000	0.00000000000000	
